<?xml version="1.0" encoding="UTF-8" standalone="no" ?>
<!DOCTYPE svg PUBLIC "-//W3C//DTD SVG 1.1//EN" "http://www.w3.org/Graphics/SVG/1.1/DTD/svg11.dtd">
<svg xmlns="http://www.w3.org/2000/svg" xmlns:xlink="http://www.w3.org/1999/xlink" version="1.1" width="1080" height="1080" viewBox="0 0 1080 1080" xml:space="preserve">
<desc>Created with Fabric.js 5.2.4</desc>
<defs>
</defs>
<g transform="matrix(1 0 0 1 540 540)" id="82397f13-0059-49cb-8cf2-2ff9b9c3cac8"  >
<rect style="stroke: none; stroke-width: 1; stroke-dasharray: none; stroke-linecap: butt; stroke-dashoffset: 0; stroke-linejoin: miter; stroke-miterlimit: 4; fill: rgb(255,255,255); fill-rule: nonzero; opacity: 1; visibility: hidden;" vector-effect="non-scaling-stroke"  x="-540" y="-540" rx="0" ry="0" width="1080" height="1080" />
</g>
<g transform="matrix(1 0 0 1 540 540)" id="54e4db6b-1511-4245-9cad-ab589720e2db"  >
</g>
<g transform="matrix(8.44 0 0 8.44 540 540)"  >
<g style=""   >
		<g transform="matrix(1 0 0 1 0 0)"  >
<rect style="stroke: none; stroke-width: 1; stroke-dasharray: none; stroke-linecap: butt; stroke-dashoffset: 0; stroke-linejoin: miter; stroke-miterlimit: 4; fill: rgb(0,0,0); fill-rule: nonzero; opacity: 1;" vector-effect="non-scaling-stroke"  x="-64" y="-64" rx="0" ry="0" width="128" height="128" />
</g>
		<g transform="matrix(1 0 0 1 0 0)"  >
<path style="stroke: none; stroke-width: 1; stroke-dasharray: none; stroke-linecap: butt; stroke-dashoffset: 0; stroke-linejoin: miter; stroke-miterlimit: 4; fill: rgb(255,255,255); fill-rule: nonzero; opacity: 1;" vector-effect="non-scaling-stroke"  transform=" translate(-64, -64)" d="M 115.46 2 L 12.54 2 C 9.71511 2.00457 7.00739 3.12946 5.01083 5.12789 C 3.01427 7.12633 1.89192 9.83511 1.89 12.66 L 1.89 115.34 C 1.89193 118.165 3.01428 120.874 5.01084 122.872 C 7.0074 124.871 9.71512 125.995 12.54 126 L 115.46 126 C 118.285 125.995 120.993 124.871 122.989 122.872 C 124.986 120.874 126.108 118.165 126.11 115.34 L 126.11 12.66 C 126.108 9.83511 124.986 7.12633 122.989 5.12789 C 120.993 3.12946 118.285 2.00457 115.46 2 Z M 22.51 27.04 C 22.5137 25.5727 23.0988 24.1668 24.1373 23.1302 C 25.1757 22.0936 26.5827 21.511 28.05 21.51 L 36.63 21.51 C 38.0962 21.5114 39.502 22.0945 40.5388 23.1312 C 41.5755 24.168 42.1586 25.5738 42.16 27.04 L 42.16 35.63 C 42.1586 37.0962 41.5755 38.502 40.5388 39.5388 C 39.502 40.5755 38.0962 41.1586 36.63 41.16 L 28.05 41.16 C 26.5827 41.159 25.1757 40.5764 24.1373 39.5398 C 23.0988 38.5032 22.5137 37.0973 22.51 35.63 L 22.51 27.04 Z M 44.37 104.78 C 44.3708 105.232 44.1922 105.666 43.8735 105.986 C 43.5548 106.307 43.122 106.488 42.67 106.49 L 22.07 106.49 C 21.618 106.488 21.1852 106.307 20.8665 105.986 C 20.5478 105.666 20.3692 105.232 20.37 104.78 L 20.37 44.61 C 20.3692 44.158 20.5478 43.7241 20.8665 43.4035 C 21.1852 43.083 21.618 42.9019 22.07 42.9 L 42.67 42.9 C 43.122 42.9019 43.5548 43.083 43.8735 43.4035 C 44.1922 43.7241 44.3708 44.158 44.37 44.61 L 44.37 104.78 Z M 107.63 104.78 C 107.631 105.232 107.452 105.666 107.134 105.986 C 106.815 106.307 106.382 106.488 105.93 106.49 L 89.29 106.49 C 88.838 106.488 88.4052 106.307 88.0865 105.986 C 87.7678 105.666 87.5892 105.232 87.59 104.78 L 87.59 72.03 C 87.59 69.13 87.27 65.04 84.49 63 C 80.87 60.33 76.15 61.6 73.36 64.22 C 71.48 65.97 70.57 68.66 70.57 72.44 L 70.57 104.78 C 70.5685 105.233 70.3879 105.667 70.0675 105.987 C 69.7471 106.308 69.3131 106.488 68.86 106.49 L 52.23 106.49 C 51.7769 106.489 51.3429 106.308 51.0225 105.988 C 50.7021 105.667 50.5215 105.233 50.52 104.78 L 50.52 44.61 C 50.5215 44.1569 50.7021 43.7229 51.0225 43.4025 C 51.3429 43.0821 51.7769 42.9015 52.23 42.9 L 68.86 42.9 C 69.3131 42.9015 69.7471 43.0822 70.0675 43.4025 C 70.3879 43.7229 70.5685 44.1569 70.57 44.61 L 70.57 45.87 C 70.7 45.79 70.83 45.7 70.96 45.62 C 74.6887 43.2962 78.9965 42.0694 83.39 42.08 C 90.53 42.08 96.42 44.44 100.92 49.1 C 106.47 54.85 107.63 62.85 107.63 68.54 L 107.63 104.78 Z" stroke-linecap="round" />
</g>
</g>
</g>
</svg>